<?xml version="1.0" encoding="UTF-8"?>
<svg id="Layer_2" data-name="Layer 2" xmlns="http://www.w3.org/2000/svg" viewBox="0 0 275 215.7">
  <defs>
    <style>
      .cls-1 {
        fill: #fff;
      }
    </style>
  </defs>
  <g id="Layer_1-2" data-name="Layer 1">
    <g>
      <path class="cls-1" d="m.01,179.99h3.12v15.45h9.61v-15.45h3.12v35.21h-3.12v-16.95H3.13v16.95H.01v-35.21Z"/>
      <path class="cls-1" d="m25.57,207.1v-19.01c0-5.58,2.82-8.6,7.9-8.6s7.9,3.02,7.9,8.6v19.01c0,5.58-2.82,8.6-7.9,8.6s-7.9-3.02-7.9-8.6h0Zm12.68.2v-19.42c0-3.77-1.71-5.58-4.78-5.58s-4.78,1.81-4.78,5.58v19.42c0,3.77,1.71,5.53,4.78,5.53s4.78-1.76,4.78-5.53Z"/>
      <path class="cls-1" d="m51.12,179.99h4.68l5.89,29.43,5.89-29.43h4.68v35.21h-3.07v-30.69l-6.24,30.69h-2.72l-6.29-30.69v30.69h-2.82v-35.21Z"/>
      <path class="cls-1" d="m82.42,179.99h14.09v2.82h-10.97v12.63h9.01v2.82h-9.01v14.09h10.97v2.87h-14.09v-35.23Z"/>
      <path class="cls-1" d="m123.42,182.81h-6.44v-2.82h16.05v2.82h-6.49v32.39h-3.12v-32.39h0Z"/>
      <path class="cls-1" d="m141.58,179.99h3.12v15.45h9.61v-15.45h3.12v35.21h-3.12v-16.95h-9.61v16.95h-3.12v-35.21Z"/>
      <path class="cls-1" d="m167.54,179.99h14.09v2.82h-10.96v12.63h9v2.82h-9v14.09h10.96v2.87h-14.09v-35.23Z"/>
      <path class="cls-1" d="m202.45,207.41h-9.01l-1.46,7.8h-2.97l6.89-35.21h4.23l6.99,35.21h-3.17l-1.51-7.8h0Zm-.5-2.77l-4.02-20.83-3.92,20.83h7.95,0Z"/>
      <path class="cls-1" d="m217.65,182.81h-6.44v-2.82h16.05v2.82h-6.49v32.39h-3.12v-32.39h0Z"/>
      <path class="cls-1" d="m235.81,179.99h7.5c5.48,0,7.8,2.47,7.8,8v2.16c0,3.92-1.36,6.29-4.27,7.09v.1c3.07.71,4.27,3.07,4.27,7.24v6.39c0,1.51.1,3.02.5,4.23h-3.17c-.25-1.01-.45-2.11-.45-4.27v-6.49c0-4.07-1.51-5.48-5.23-5.48h-3.82v16.25h-3.12v-35.21h0Zm6.89,16.04c3.57,0,5.28-1.51,5.28-5.33v-2.47c0-3.82-1.36-5.43-4.78-5.43h-4.27v13.23h3.77Z"/>
      <path class="cls-1" d="m260.91,179.99h14.09v2.82h-10.96v12.63h9v2.82h-9v14.09h10.96v2.87h-14.09v-35.23Z"/>
    </g>
    <g>
      <path class="cls-1" d="m62.62,29.42h-11.07c-1.36,0-1.87,1.28-1.87,2.13v51.1h-9.71V31.46c0-1.19-.51-2.04-1.62-2.04h-11.33v-9.03h35.6v9.03Z"/>
      <path class="cls-1" d="m123.69,81.37c0,.68-.51,1.28-1.28,1.28h-31.17l-12.09-23.34c-.34-.6-.6-.77-1.28-.77h-1.19c-.68,0-.85.68-.85.94v23.17h-9.54V20.48h17.37c13.46,0,18.31,5.2,18.31,19.33,0,11.5-3.92,16.69-12.78,18.23l8.35,16.1h24.87c.77,0,1.28.6,1.28,1.28v5.96h0Zm-42.58-51.96h-4.17c-.51,0-1.11.43-1.11.85v18.23c0,.51.26.85.77.85h4.51c9.28,0,11.16-2.56,11.16-9.54s-1.02-10.39-11.16-10.39Zm57.66,53.23h-9.54l-5.11-23.51c-.17-.77-.51-1.19-1.19-1.19h-8.77c-.51,0-.94.51-1.02,1.02l-2.21,10.14h-9.2l8.69-39.01c0-.17.09-.43.09-.6,0-1.11-.85-1.87-2.38-1.87h-5.37v-7.24h22.57l13.46,62.26h-.02Zm-19.84-46.84c-.09-.26-.17-.43-.34-.43s-.34.17-.34.43l-2.98,13.29v.34c0,.34.09.68.68.68h5.2c.34,0,.77-.34.77-.77v-.17l-2.98-13.37h-.01Z"/>
      <path class="cls-1" d="m160.34,82.61h-17.37V31.51c0-1.19-.68-2.21-2.13-2.21h-5.45v-8.94l24.95.09c10.65.09,18.23,4.26,18.23,31.26,0,23.76-6.98,30.92-18.23,30.92v-.02Zm-2.56-53.23h-3.92c-.85,0-1.28.51-1.28,1.28v41.65c0,.85.43,1.19,1.11,1.19h4.09c9.28,0,11.16-8.01,11.16-21.8,0-15.59-1.02-22.31-11.16-22.31h0Z"/>
      <path class="cls-1" d="m207.61,82.61h-23.76v-48.46h23.68v8.69h-11.84c-1.11,0-2.13,1.11-2.13,2.21v7.07c0,1.02.85,2.21,1.87,2.21h8.77v9.2h-8.6c-1.19,0-2.04,1.02-2.04,2.3v5.28c0,.94.51,2.13,1.87,2.13h12.18v9.37Zm40.37,0h-10.05l-12.18-23.42c-.26-.51-.43-.68-.94-.68h-2.13c-.43,0-.85.34-.85.68v23.42h-9.54V31.77c0-1.11-.6-2.38-2.04-2.38h-18.82v-8.94h38.24c13.46,0,18.31,5.2,18.31,19.33,0,11.5-3.92,16.69-12.78,18.23l12.78,24.61h0Zm-20.87-53.24h-4.43c-.51,0-.85.26-.85.68v18.48c0,.43.43.77.68.77h4.6c9.28,0,11.16-2.56,11.16-9.54s-1.02-10.39-11.16-10.39Z"/>
    </g>
    <g>
      <path class="cls-1" d="m60.37,148.6h-9.41v-20.22c0-.99-.33-1.65-1.49-1.65h-10.81c-.74,0-1.49.83-1.49,1.65v20.22h-10.15v-60.25h10.15v27.57c0,.83.58,1.57,1.32,1.57h10.98c.91,0,1.49-.49,1.49-1.73v-27.4h9.41v60.25h0Z"/>
      <path class="cls-1" d="m82.65,150.09c-14.61,0-17.58-4.46-17.58-31.53,0-23.94,2.97-31.45,17.75-31.45,15.52,0,17.58,4.79,17.58,31.45s-2.89,31.53-17.75,31.53Zm0-53.57c-5.94,0-8.17.99-8.17,22.04s2.15,22.04,8.17,22.04,8.25-1.4,8.25-22.04c0-21.71-1.49-22.04-8.25-22.04Z"/>
      <path class="cls-1" d="m170.39,96.85h-18.49l-9.24,51.75h-9.82l-4.87-29.55c-.08-.25-.25-.41-.41-.41-.25,0-.5.17-.5.41l-5.28,29.55h-9.82l-9.9-60.25h9.57l4.79,34.42c0,.41.25.58.58.58.25,0,.58-.25.66-.66l5.28-34.34h9.57l4.79,34.42c0,.41.25.58.58.58.25,0,.58-.25.66-.66l5.28-34.34h26.58v8.5h0Zm6.44,51.75h-23.11v-46.96h22.95v8.42h-11.39c-1.16,0-2.15,1.07-2.15,2.15v6.85c0,.99.91,2.15,1.9,2.15h8.5v8.91h-8.42c-1.07,0-1.98.99-1.98,2.23v5.12c0,.91.49,2.06,1.9,2.06h11.8v9.08h0Z"/>
      <path class="cls-1" d="m213.15,148.6h-31.03v-60.25h10.07v49.11c0,1.65,1.16,2.72,2.97,2.72h17.99v8.42h0Z"/>
      <path class="cls-1" d="m247.98,148.6h-31.03v-60.25h10.07v49.11c0,1.65,1.16,2.72,2.97,2.72h17.99v8.42Z"/>
    </g>
    <path class="cls-1" d="m275,168.89H0V0h275v168.89h0ZM4.77,164.12h265.45V4.78H4.78v159.34h0Z"/>
  </g>
</svg>